<svg xmlns="http://www.w3.org/2000/svg" width="9" height="10" viewBox="0 0 9 10" fill="none"><style>.a{fill:#818181;}</style><path d="M4.2 6.4C4.8 6.9 5.4 7 6 6.8 6.3 6.7 6.5 6.5 6.6 6.4L5.4 4.7V2.1H2.8V4.7L2 5.8C2.6 5.7 3.4 5.7 4.2 6.4Z" class="a"/><path d="M2.4 0H5.8V1.5H2.4V0Z" class="a"/><path d="M8.1 8.6L6.9 6.9C6.8 7.1 6.5 7.3 6.1 7.4 6 7.5 5.7 7.5 5.5 7.5 5 7.5 4.5 7.3 3.9 6.8 2.5 5.7 1.4 6.8 1.3 6.8L0.2 8.6C0 8.8-0.1 9.2 0.1 9.5 0.3 9.8 0.6 10 0.9 10H7.3C7.6 10 8 9.8 8.1 9.5 8.3 9.2 8.2 8.8 8.1 8.6ZM2 9.1H1.4V8.5H2V9.1ZM2.1 7.5H2.6V8.1H2.1V7.5ZM3.1 9.1H2.5V8.6H3.1V9.1Z" class="a"/></svg>