<svg xmlns="http://www.w3.org/2000/svg" width="13" height="13" viewBox="0 0 13 13" fill="none"><style>.a{fill:#818181;}</style><path d="M7.3 11.6C8.1 10.8 8.5 9.6 8.3 8.6 7.8 8.8 7.4 8.9 6.9 9.3L5.7 10.5 7.1 11.9 7.3 11.6Z" class="a"/><path d="M3.7 6.1C4.1 5.6 4.2 5.2 4.4 4.7 3.3 4.5 2.2 4.9 1.4 5.7L1.1 5.9 2.5 7.3 3.7 6.1Z" class="a"/><path d="M3.6 11.6C4.1 11 4.1 10 3.6 9.4 3 8.8 2 8.8 1.4 9.4 1 9.8 0.2 11.7 0 13V13L0 13C1.3 12.8 3.1 12 3.6 11.6V11.6Z" class="a"/><path d="M3.6 7.3L4.4 8.1 3.8 8.6 3 7.8 3.6 7.3Z" class="a"/><path d="M12.7 0.3C12 0.1 11.3 0 10.6 0 10.4 0.7 10.6 1.4 11.1 1.9 11.6 2.4 12.3 2.6 13 2.4 13 1.7 12.9 1 12.7 0.3Z" class="a"/><path d="M4.9 8.6L5.7 9.4 5.2 10 4.4 9.2 4.9 8.6Z" class="a"/><path d="M7.9 3.5C7.4 4 7.4 4.7 7.9 5.1 8.3 5.6 9 5.6 9.5 5.1 9.9 4.7 9.9 4 9.5 3.5 9 3.1 8.3 3.1 7.9 3.5V3.5Z" class="a"/><path d="M12.9 3.2C12.1 3.3 11.2 3.1 10.6 2.4 9.9 1.8 9.7 0.9 9.8 0.1 8.1 0.5 6.6 1.6 5.9 3.4L4.9 5.7C4.6 6.3 4.2 6.7 4.1 6.7L4.9 7.5 6 6.5 6.5 7 5.4 8.1 6.3 8.9C6.3 8.8 6.7 8.4 7.3 8.1L9.6 7.1C11.4 6.4 12.5 4.9 12.9 3.2V3.2ZM7.3 5.7C6.6 4.9 6.6 3.7 7.3 3 8.1 2.2 9.3 2.2 10 3 10.8 3.7 10.8 4.9 10 5.7 9.3 6.4 8.1 6.4 7.3 5.7Z" class="a"/></svg>