<svg width="10" height="12" viewBox="0 0 6 8" fill="none" xmlns="http://www.w3.org/2000/svg">
<path d="M5.14042 5.94208L5.36792 7.26375C5.22708 7.33958 4.99958 7.41 4.69625 7.475C4.3875 7.54542 4.02458 7.58333 3.6075 7.58333C2.41042 7.56167 1.51125 7.20417 0.91 6.52167C0.2925 5.83375 0 4.96167 0 3.90542C0.0216667 2.65417 0.39 1.69542 1.105 1.02375C1.79833 0.346667 2.68667 0 3.75917 0C4.16542 0 4.5175 0.0379167 4.81 0.102917C5.1025 0.167917 5.31917 0.238333 5.46 0.319583L5.135 1.66833L4.57167 1.48417C4.355 1.43 4.10042 1.40292 3.81333 1.40292C3.19042 1.3975 2.67042 1.59792 2.26417 1.99875C1.8525 2.39417 1.64667 3.00083 1.625 3.80792C1.63042 4.54458 1.82542 5.11875 2.21 5.54125C2.59458 5.95833 3.13083 6.175 3.82958 6.18042L4.55 6.11542C4.78292 6.07208 4.97792 6.0125 5.14042 5.94208Z" fill="#0277BD"/>
</svg>
