<svg xmlns="http://www.w3.org/2000/svg" width="6" height="6" viewBox="0 0 6 6" fill="none"><path d="M3.9 3.1C3.8 3 3.8 3 3.9 2.9L5.9 0.8C6 0.8 6 0.7 6 0.7 6 0.6 6 0.5 5.9 0.5L5.5 0.1C5.5 0 5.4 0 5.3 0 5.3 0 5.2 0 5.2 0.1L3.1 2.1C3 2.2 3 2.2 2.9 2.1L0.8 0.1C0.8 0 0.7 0 0.7 0 0.6 0 0.5 0 0.5 0.1L0.1 0.5C0 0.5 0 0.6 0 0.7 0 0.7 0 0.8 0.1 0.8L2.1 2.9C2.2 3 2.2 3 2.1 3.1L0.1 5.2C0 5.2 0 5.3 0 5.3 0 5.4 0 5.5 0.1 5.5L0.5 5.9C0.5 6 0.6 6 0.7 6 0.7 6 0.8 6 0.8 5.9L2.9 3.9C3 3.8 3 3.8 3.1 3.9L5.2 5.9C5.2 6 5.3 6 5.3 6 5.4 6 5.5 6 5.5 5.9L5.9 5.5C6 5.5 6 5.4 6 5.3 6 5.3 6 5.2 5.9 5.2L3.9 3.1Z" fill="#949CA0"/></svg>