<svg width="10" height="12" viewBox="0 0 10 10" fill="none" xmlns="http://www.w3.org/2000/svg">
<path d="M0 0H9.75V9.75H0V0ZM2.56208 8.14667C2.77875 8.60708 3.20667 8.98625 3.93792 8.98625C4.75042 8.98625 5.30833 8.55292 5.30833 7.605V4.47417H4.3875V7.58333C4.3875 8.04917 4.19792 8.16833 3.9 8.16833C3.58583 8.16833 3.45583 7.95167 3.30958 7.69708L2.56208 8.14667ZM5.80125 8.04917C6.07208 8.58 6.61917 8.98625 7.475 8.98625C8.34167 8.98625 8.99167 8.53667 8.99167 7.70792C8.99167 6.94417 8.55292 6.60292 7.77292 6.26708L7.54542 6.16958C7.15 6.00167 6.98208 5.88792 6.98208 5.61708C6.98208 5.395 7.15 5.22167 7.42083 5.22167C7.68083 5.22167 7.85417 5.33542 8.01125 5.61708L8.72083 5.14583C8.42292 4.62583 8.00042 4.42542 7.42083 4.42542C6.60292 4.42542 6.0775 4.94542 6.0775 5.63333C6.0775 6.38083 6.51625 6.73292 7.17708 7.01458L7.40458 7.11208C7.82708 7.29625 8.07625 7.41 8.07625 7.72417C8.07625 7.98417 7.8325 8.17375 7.45333 8.17375C7.00375 8.17375 6.74375 7.94083 6.54875 7.61583L5.80125 8.04917Z" fill="#FFCA28"/>
</svg>
