<svg xmlns="http://www.w3.org/2000/svg" width="8" height="10" viewBox="0 0 8 10" fill="none"><style>.a{fill:#818181;}</style><path d="M3.8 4.9C4.9 4.9 5.8 3.8 5.8 2.4 5.8 1.1 5.5 0 3.8 0 2.1 0 1.8 1.1 1.8 2.4 1.8 3.8 2.7 4.9 3.8 4.9Z" class="a"/><path d="M0 8.6C0 8.5 0 8.6 0 8.6V8.6Z" class="a"/><path d="M7.6 8.7C7.6 8.7 7.6 8.5 7.6 8.7V8.7Z" class="a"/><path d="M7.6 8.5C7.6 6.2 7.3 5.5 4.9 5.1 4.9 5.1 4.6 5.5 3.8 5.5 3 5.5 2.7 5.1 2.7 5.1 0.4 5.5 0 6.2 0 8.4 0 8.6 0 8.6 0 8.6 0 8.7 0 8.7 0 8.9 0 8.9 0.6 10 3.8 10 7 10 7.6 8.9 7.6 8.9 7.6 8.8 7.6 8.7 7.6 8.7 7.6 8.7 7.6 8.7 7.6 8.5Z" class="a"/></svg>