<svg width="13" height="13" viewBox="0 0 13 13" fill="none" xmlns="http://www.w3.org/2000/svg">
<path d="M7.9882 0C7.98941 0.0233382 7.98941 0.0467231 7.9882 0.0700613C7.9882 0.265812 7.94964 0.459645 7.87473 0.640495C7.79982 0.821345 7.69002 0.985669 7.55161 1.12409C7.27206 1.40363 6.89292 1.56068 6.49758 1.56068C6.30199 1.56052 6.10835 1.52184 5.92771 1.44684C5.74706 1.37184 5.58296 1.262 5.44477 1.12359C5.30658 0.985169 5.197 0.820889 5.1223 0.640125C5.04759 0.459361 5.00923 0.265653 5.00939 0.0700613C5.00818 0.0467231 5.00818 0.0233382 5.00939 0L0 0V13H13V0H7.9882ZM6.20405 11.6084L5.56988 8.47621H5.559L4.8753 11.6084H4.00316L3.01505 7.00613H3.87632L4.46581 10.1396H4.47668L5.18695 7.00613H5.99266L6.63046 10.1782H6.64254L7.31416 7.00613H8.15973L7.0617 11.6084H6.20405ZM10.9465 11.6084L10.6529 10.5841H9.10314L8.87725 11.6084H8.01598L9.12972 7.00613H10.4887L11.8428 11.6084H10.9465Z" fill="#7C4DFF"/>
</svg>
